<?xml version="1.0" encoding="UTF-8" standalone="no"?>
<!-- Created with Inkscape (http://www.inkscape.org/) -->

<svg
   xmlns:osb="http://www.openswatchbook.org/uri/2009/osb"
   xmlns:dc="http://purl.org/dc/elements/1.1/"
   xmlns:cc="http://creativecommons.org/ns#"
   xmlns:rdf="http://www.w3.org/1999/02/22-rdf-syntax-ns#"
   xmlns:svg="http://www.w3.org/2000/svg"
   xmlns="http://www.w3.org/2000/svg"
   xmlns:xlink="http://www.w3.org/1999/xlink"
   xmlns:sodipodi="http://sodipodi.sourceforge.net/DTD/sodipodi-0.dtd"
   xmlns:inkscape="http://www.inkscape.org/namespaces/inkscape"
   width="210mm"
   height="297mm"
   viewBox="0 0 210 297"
   version="1.1"
   id="svg8"
   inkscape:version="0.92.3 (2405546, 2018-03-11)"
   sodipodi:docname="logo.svg">
  <defs
     id="defs2">
    <linearGradient
       inkscape:collect="always"
       id="linearGradient896">
      <stop
         style="stop-color:#fff9b3;stop-opacity:1;"
         offset="0"
         id="stop892" />
      <stop
         style="stop-color:#fff9b3;stop-opacity:0;"
         offset="1"
         id="stop894" />
    </linearGradient>
    <linearGradient
       id="linearGradient2257"
       osb:paint="solid">
      <stop
         style="stop-color:#000000;stop-opacity:1;"
         offset="0"
         id="stop2255" />
    </linearGradient>
    <filter
       inkscape:collect="always"
       style="color-interpolation-filters:sRGB"
       id="filter2295"
       x="-0.13375964"
       width="1.2675193"
       y="-0.12125366"
       height="1.2425073">
      <feGaussianBlur
         inkscape:collect="always"
         stdDeviation="1.6608797"
         id="feGaussianBlur2297" />
    </filter>
    <filter
       inkscape:collect="always"
       style="color-interpolation-filters:sRGB"
       id="filter3290"
       x="-0.012"
       width="1.024"
       y="-0.012"
       height="1.024">
      <feGaussianBlur
         inkscape:collect="always"
         stdDeviation="0.30936449"
         id="feGaussianBlur3292" />
    </filter>
    <circle
       style="opacity:1;vector-effect:none;fill:#d2d2b4;fill-opacity:1;stroke:#000000;stroke-width:0.065;stroke-linecap:square;stroke-linejoin:miter;stroke-miterlimit:4;stroke-dasharray:none;stroke-dashoffset:0;stroke-opacity:1;filter:url(#filter3290)"
       id="path2275-1"
       cx="72.294052"
       cy="104.51617"
       r="30.936449" />
    <circle
       style="opacity:1;vector-effect:none;fill:#d2d2b4;fill-opacity:1;stroke:#000000;stroke-width:0.065;stroke-linecap:square;stroke-linejoin:miter;stroke-miterlimit:4;stroke-dasharray:none;stroke-dashoffset:0;stroke-opacity:1;filter:url(#filter3290)"
       id="path2275-1-2"
       cx="72.294052"
       cy="104.51617"
       r="30.936449" />
    <filter
       inkscape:collect="always"
       style="color-interpolation-filters:sRGB"
       id="filter3403"
       x="-0.031441009"
       width="1.062882"
       y="-0.030962658"
       height="1.0619253">
      <feGaussianBlur
         inkscape:collect="always"
         stdDeviation="0.47465556"
         id="feGaussianBlur3405" />
    </filter>
    <filter
       inkscape:collect="always"
       style="color-interpolation-filters:sRGB"
       id="filter1047"
       x="-0.0432"
       width="1.0864"
       y="-0.0432"
       height="1.0864">
      <feGaussianBlur
         inkscape:collect="always"
         stdDeviation="0.12748756"
         id="feGaussianBlur1049" />
    </filter>
    <filter
       inkscape:collect="always"
       style="color-interpolation-filters:sRGB"
       id="filter2295-6"
       x="-0.13375963"
       width="1.2675194"
       y="-0.12125366"
       height="1.2425073">
      <feGaussianBlur
         inkscape:collect="always"
         stdDeviation="1.6608797"
         id="feGaussianBlur2297-0" />
    </filter>
    <radialGradient
       id="radialGradient10835"
       gradientUnits="userSpaceOnUse"
       cy="98.385002"
       cx="16.073999"
       gradientTransform="matrix(2.2777,1.8145,-1.5547,2.3139,142.42,-168.8)"
       r="7.395">
      <stop
         id="stop10767"
         stop-color="#989898"
         offset="0" />
      <stop
         id="stop10769"
         stop-color="#989898"
         stop-opacity="0"
         offset="1" />
    </radialGradient>
    <radialGradient
       id="radialGradient10832"
       gradientUnits="userSpaceOnUse"
       cy="97.809998"
       cx="16.886"
       gradientTransform="matrix(0.5073,2.9921,-2.503,0.62902,307.65,-19.14)"
       r="7.395">
      <stop
         id="stop10784"
         stop-color="#989898"
         offset="0" />
      <stop
         id="stop10786"
         stop-color="#989898"
         stop-opacity="0"
         offset="1" />
    </radialGradient>
    <linearGradient
       id="linearGradient10829"
       y2="32.226002"
       xlink:href="#linearGradient10023"
       gradientUnits="userSpaceOnUse"
       x2="76.946999"
       gradientTransform="translate(9.2332,-0.91122)"
       y1="9.1398001"
       x1="78.295998" />
    <linearGradient
       id="linearGradient10023">
      <stop
         id="stop10025"
         stop-color="#bdbdbd"
         offset="0" />
      <stop
         id="stop10027"
         stop-color="#bdbdbd"
         stop-opacity="0"
         offset="1" />
    </linearGradient>
    <linearGradient
       id="linearGradient10826"
       y2="138.12"
       gradientUnits="userSpaceOnUse"
       x2="46.516998"
       gradientTransform="translate(8.7561,-0.91122)"
       y1="14.79"
       x1="46.516998">
      <stop
         id="stop10796"
         stop-color="#989898"
         offset="0" />
      <stop
         id="stop10798"
         stop-color="#989898"
         stop-opacity="0"
         offset="1" />
    </linearGradient>
    <linearGradient
       id="linearGradient10823"
       y2="129.94"
       xlink:href="#linearGradient10023"
       gradientUnits="userSpaceOnUse"
       x2="89.799004"
       gradientTransform="translate(9.0091,-1.0799)"
       y1="12.215"
       x1="91.111" />
    <filter
       inkscape:collect="always"
       style="color-interpolation-filters:sRGB"
       id="filter1814"
       x="-0.006"
       width="1.012"
       y="-0.006"
       height="1.012">
      <feGaussianBlur
         inkscape:collect="always"
         stdDeviation="0.15468225"
         id="feGaussianBlur1816" />
    </filter>
    <filter
       inkscape:collect="always"
       style="color-interpolation-filters:sRGB"
       id="filter1876"
       x="-0.0552"
       width="1.1104"
       y="-0.0552"
       height="1.1104">
      <feGaussianBlur
         inkscape:collect="always"
         stdDeviation="0.16290077"
         id="feGaussianBlur1878" />
    </filter>
    <linearGradient
       id="linearGradient1417"
       y2="104.59"
       xlink:href="#linearGradient3016"
       gradientUnits="userSpaceOnUse"
       x2="103.29"
       gradientTransform="translate(-13.327,-18.22)"
       y1="27.309999"
       x1="57.074001" />
    <linearGradient
       id="linearGradient3016">
      <stop
         id="stop3018"
         stop-color="#949494"
         offset="0" />
      <stop
         id="stop3020"
         stop-color="#949494"
         stop-opacity="0"
         offset="1" />
    </linearGradient>
    <linearGradient
       id="linearGradient1419"
       y2="104.59"
       xlink:href="#linearGradient3016"
       gradientUnits="userSpaceOnUse"
       x2="103.29"
       gradientTransform="matrix(0.99842,0.056124,-0.056124,0.99842,-11.4,-7.4936)"
       y1="27.309999"
       x1="57.074001" />
    <radialGradient
       id="radialGradient1421"
       gradientUnits="userSpaceOnUse"
       cy="98.385002"
       cx="16.073999"
       gradientTransform="matrix(2.2777,1.8145,-1.5547,2.3139,132.31,-174.3)"
       r="7.395">
      <stop
         id="stop10767-7"
         stop-color="#989898"
         offset="0" />
      <stop
         id="stop10769-0"
         stop-color="#989898"
         stop-opacity="0"
         offset="1" />
    </radialGradient>
    <linearGradient
       id="linearGradient1423"
       y2="138.12"
       gradientUnits="userSpaceOnUse"
       x2="46.516998"
       gradientTransform="translate(-1.3567,-6.4121)"
       y1="14.79"
       x1="46.516998">
      <stop
         id="stop10796-5"
         stop-color="#989898"
         offset="0" />
      <stop
         id="stop10798-1"
         stop-color="#989898"
         stop-opacity="0"
         offset="1" />
    </linearGradient>
    <filter
       inkscape:collect="always"
       style="color-interpolation-filters:sRGB"
       id="filter2633"
       x="-0.0057577891"
       width="1.0115156"
       y="-0.0062634838"
       height="1.012527">
      <feGaussianBlur
         inkscape:collect="always"
         stdDeviation="0.09617713"
         id="feGaussianBlur2635" />
    </filter>
    <linearGradient
       inkscape:collect="always"
       xlink:href="#linearGradient896"
       id="linearGradient898"
       x1="32.307111"
       y1="104.51617"
       x2="107.30711"
       y2="104.51617"
       gradientUnits="userSpaceOnUse" />
  </defs>
  <sodipodi:namedview
     id="base"
     pagecolor="#ffffff"
     bordercolor="#666666"
     borderopacity="1.0"
     inkscape:pageopacity="0.0"
     inkscape:pageshadow="2"
     inkscape:zoom="2.8"
     inkscape:cx="219.18633"
     inkscape:cy="721.87184"
     inkscape:document-units="mm"
     inkscape:current-layer="layer1"
     showgrid="false"
     inkscape:window-width="2560"
     inkscape:window-height="1361"
     inkscape:window-x="0"
     inkscape:window-y="0"
     inkscape:window-maximized="1" />
  <metadata
     id="metadata5">
    <rdf:RDF>
      <cc:Work
         rdf:about="">
        <dc:format>image/svg+xml</dc:format>
        <dc:type
           rdf:resource="http://purl.org/dc/dcmitype/StillImage" />
        <dc:title />
      </cc:Work>
    </rdf:RDF>
  </metadata>
  <g
     inkscape:label="Ebene 1"
     inkscape:groupmode="layer"
     id="layer1">
    <rect
       style="opacity:1;vector-effect:none;fill:#000000;fill-opacity:0;stroke:none;stroke-width:0.1;stroke-linecap:round;stroke-linejoin:miter;stroke-miterlimit:4;stroke-dasharray:none;stroke-dashoffset:0;stroke-opacity:1"
       id="rect3565"
       width="24.851934"
       height="94.399551"
       x="4.5357141"
       y="58.591518" />
    <rect
       style="opacity:1;vector-effect:none;fill:url(#linearGradient898);fill-opacity:1;stroke:#000000;stroke-width:0.065;stroke-linecap:square;stroke-linejoin:miter;stroke-miterlimit:4;stroke-dasharray:none;stroke-dashoffset:0;stroke-opacity:1"
       id="rect815"
       width="74.934998"
       height="74.934998"
       x="32.339611"
       y="67.048668" />
    <g
       id="g2817"
       transform="translate(-2.4730354,1.0948489e-6)">
      <circle
         r="30.936449"
         cy="104.51617"
         cx="72.294052"
         id="path2275"
         style="opacity:1;vector-effect:none;fill:#2556ea;fill-opacity:1;stroke:#000000;stroke-width:0.065;stroke-linecap:square;stroke-linejoin:miter;stroke-miterlimit:4;stroke-dasharray:none;stroke-dashoffset:0;stroke-opacity:1;filter:url(#filter1814)" />
      <circle
         transform="matrix(2.0273061,0,0,2.0273061,41.259979,-120.88103)"
         r="3.541321"
         cy="111.4137"
         cx="15.308036"
         id="path2277-9"
         style="opacity:1;vector-effect:none;fill:#c0c0c0;fill-opacity:1;stroke:none;stroke-width:0.18004188;stroke-linecap:square;stroke-linejoin:miter;stroke-miterlimit:4;stroke-dasharray:none;stroke-dashoffset:0;stroke-opacity:1;filter:url(#filter1047)" />
      <circle
         r="3.541321"
         cy="104.98864"
         cx="72.294052"
         id="path2277"
         style="opacity:1;vector-effect:none;fill:#ffffff;fill-opacity:1;stroke:#000000;stroke-width:0.36500001;stroke-linecap:square;stroke-linejoin:miter;stroke-miterlimit:4;stroke-dasharray:none;stroke-dashoffset:0;stroke-opacity:1;filter:url(#filter1876)" />
      <text
         id="text3356-0"
         y="87.887032"
         x="72.461601"
         style="font-style:normal;font-variant:normal;font-weight:bold;font-stretch:normal;font-size:7.79850578px;line-height:125%;font-family:sans-serif;-inkscape-font-specification:'sans-serif, Bold';font-variant-ligatures:normal;font-variant-caps:normal;font-variant-numeric:normal;font-feature-settings:normal;text-align:center;letter-spacing:0px;word-spacing:0px;writing-mode:lr-tb;text-anchor:middle;fill:#c0c0c0;fill-opacity:1;stroke:none;stroke-width:0.26458332px;stroke-linecap:butt;stroke-linejoin:miter;stroke-opacity:1;filter:url(#filter3403)"
         xml:space="preserve"><tspan
           style="font-style:normal;font-variant:normal;font-weight:bold;font-stretch:normal;font-size:7.79850578px;font-family:sans-serif;-inkscape-font-specification:'sans-serif, Bold';font-variant-ligatures:normal;font-variant-caps:normal;font-variant-numeric:normal;font-feature-settings:normal;text-align:center;writing-mode:lr-tb;text-anchor:middle;fill:#c0c0c0;fill-opacity:1;stroke-width:0.26458332px"
           y="87.887032"
           x="72.461601"
           id="tspan3354-7"
           sodipodi:role="line">Ampache</tspan><tspan
           id="tspan3358-7"
           style="font-style:normal;font-variant:normal;font-weight:bold;font-stretch:normal;font-size:7.79850578px;font-family:sans-serif;-inkscape-font-specification:'sans-serif, Bold';font-variant-ligatures:normal;font-variant-caps:normal;font-variant-numeric:normal;font-feature-settings:normal;text-align:center;writing-mode:lr-tb;text-anchor:middle;fill:#c0c0c0;fill-opacity:1;stroke-width:0.26458332px"
           y="97.635162"
           x="72.461601"
           sodipodi:role="line">Album</tspan><tspan
           id="tspan3360-7"
           style="font-style:normal;font-variant:normal;font-weight:bold;font-stretch:normal;font-size:7.79850578px;font-family:sans-serif;-inkscape-font-specification:'sans-serif, Bold';font-variant-ligatures:normal;font-variant-caps:normal;font-variant-numeric:normal;font-feature-settings:normal;text-align:center;writing-mode:lr-tb;text-anchor:middle;fill:#c0c0c0;fill-opacity:1;stroke-width:0.26458332px"
           y="107.3833"
           x="72.461601"
           sodipodi:role="line" /><tspan
           id="tspan3362-6"
           style="font-style:normal;font-variant:normal;font-weight:bold;font-stretch:normal;font-size:7.79850578px;font-family:sans-serif;-inkscape-font-specification:'sans-serif, Bold';font-variant-ligatures:normal;font-variant-caps:normal;font-variant-numeric:normal;font-feature-settings:normal;text-align:center;writing-mode:lr-tb;text-anchor:middle;fill:#c0c0c0;fill-opacity:1;stroke-width:0.26458332px"
           y="117.13143"
           x="72.461601"
           sodipodi:role="line">Player</tspan></text>
      <text
         id="text3356"
         y="87.887032"
         x="72.461601"
         style="font-style:normal;font-variant:normal;font-weight:bold;font-stretch:normal;font-size:7.79850578px;line-height:125%;font-family:sans-serif;-inkscape-font-specification:'sans-serif, Bold';font-variant-ligatures:normal;font-variant-caps:normal;font-variant-numeric:normal;font-feature-settings:normal;text-align:center;letter-spacing:0px;word-spacing:0px;writing-mode:lr-tb;text-anchor:middle;fill:#b8db79;fill-opacity:1;stroke:#000000;stroke-width:0.15000001;stroke-linecap:butt;stroke-linejoin:miter;stroke-miterlimit:4;stroke-dasharray:none;stroke-opacity:1;filter:url(#filter2633)"
         xml:space="preserve"><tspan
           style="font-style:normal;font-variant:normal;font-weight:bold;font-stretch:normal;font-size:7.79850578px;font-family:sans-serif;-inkscape-font-specification:'sans-serif, Bold';font-variant-ligatures:normal;font-variant-caps:normal;font-variant-numeric:normal;font-feature-settings:normal;text-align:center;writing-mode:lr-tb;text-anchor:middle;fill:#b8db79;fill-opacity:1;stroke:#000000;stroke-width:0.15000001;stroke-miterlimit:4;stroke-dasharray:none;stroke-opacity:1"
           y="87.887032"
           x="72.461601"
           id="tspan3354"
           sodipodi:role="line">Ampache</tspan><tspan
           id="tspan3358"
           style="font-style:normal;font-variant:normal;font-weight:bold;font-stretch:normal;font-size:7.79850578px;font-family:sans-serif;-inkscape-font-specification:'sans-serif, Bold';font-variant-ligatures:normal;font-variant-caps:normal;font-variant-numeric:normal;font-feature-settings:normal;text-align:center;writing-mode:lr-tb;text-anchor:middle;fill:#b8db79;fill-opacity:1;stroke:#000000;stroke-width:0.15000001;stroke-miterlimit:4;stroke-dasharray:none;stroke-opacity:1"
           y="97.635162"
           x="72.461601"
           sodipodi:role="line">Album</tspan><tspan
           id="tspan3360"
           style="font-style:normal;font-variant:normal;font-weight:bold;font-stretch:normal;font-size:7.79850578px;font-family:sans-serif;-inkscape-font-specification:'sans-serif, Bold';font-variant-ligatures:normal;font-variant-caps:normal;font-variant-numeric:normal;font-feature-settings:normal;text-align:center;writing-mode:lr-tb;text-anchor:middle;fill:#b8db79;fill-opacity:1;stroke:#000000;stroke-width:0.15000001;stroke-miterlimit:4;stroke-dasharray:none;stroke-opacity:1"
           y="107.3833"
           x="72.461601"
           sodipodi:role="line" /><tspan
           id="tspan3362"
           style="font-style:normal;font-variant:normal;font-weight:bold;font-stretch:normal;font-size:7.79850578px;font-family:sans-serif;-inkscape-font-specification:'sans-serif, Bold';font-variant-ligatures:normal;font-variant-caps:normal;font-variant-numeric:normal;font-feature-settings:normal;text-align:center;writing-mode:lr-tb;text-anchor:middle;fill:#b8db79;fill-opacity:1;stroke:#000000;stroke-width:0.15000001;stroke-miterlimit:4;stroke-dasharray:none;stroke-opacity:1"
           y="117.13143"
           x="72.461601"
           sodipodi:role="line">Player</tspan></text>
      <path
         transform="matrix(0.50930334,-0.8165949,0.68508851,0.55106948,-35.296465,107.31762)"
         inkscape:connector-curvature="0"
         id="path2281"
         d="M 72.162772,104.56594 42.36222,83.31801 53.186636,71.691787 Z"
         style="fill:#ffffff;fill-opacity:1;fill-rule:evenodd;stroke:none;stroke-width:0.28866667px;stroke-linecap:butt;stroke-linejoin:miter;stroke-opacity:1;filter:url(#filter2295)" />
      <path
         transform="matrix(-0.37802829,0.88842387,-0.76130162,-0.43314955,179.97899,87.194527)"
         inkscape:connector-curvature="0"
         id="path2281-2"
         d="M 72.162772,104.56594 42.36222,83.31801 53.186636,71.691787 Z"
         style="fill:#ffffff;fill-opacity:1;fill-rule:evenodd;stroke:none;stroke-width:0.28866667px;stroke-linecap:butt;stroke-linejoin:miter;stroke-opacity:1;filter:url(#filter2295-6)" />
      <g
         style="stroke-width:1.67843556"
         transform="matrix(0.15196569,0.04190241,-0.04190241,0.15196569,91.906632,95.050795)"
         id="layer1-1">
        <g
           style="stroke-width:1.67843556"
           transform="translate(-9.75,-9.25)"
           id="g1408">
          <path
             style="stroke-width:1.67843556"
             inkscape:connector-curvature="0"
             d="m 44.235,9.8735 c -0.398,0.0403 -0.738,0.1915 -1,0.4685 2.938,6.761 4.06,16.224 3.907,21.469 -0.288,9.735 -1.282,16.834 -2.719,25.063 -1.402,8.028 -4.191,15.294 -6.75,22.812 -1.843,5.994 -5.729,0.008 -8.5,-1.219 -3.993,-1.768 -7.508,-1.889 -11.375,0 -3.867,1.89 -6.031,4.677 -7,9.063 -0.9476,4.287 1.244,9.598 4.812,12.5 3.466,2.82 8.593,3.2 12.75,1.87 4.104,-1.42 7.804,-5.288 9.344,-9.308 0.789,-1.869 1.254,-2.696 2.188,-5.656 0.934,-2.96 2.18,-7.297 3.218,-11 1.911,-6.816 4.563,-13.026 6.219,-28.375 0.38,-3.091 1.15,-11.245 1.25,-18.531 0.011,-0.802 0.225,-0.822 0.344,-0.844 0.699,-0.129 2.309,1.072 4.625,2.594 2.316,1.522 5.506,3.556 7.062,4.5 7.645,4.635 11.7,10.651 12.063,17.875 0.253,5.045 -0.667,8.959 -3.469,15 -1.057,2.28 -1.182,2.797 -0.812,3.031 0.703,0.445 0.817,0.375 1.781,-1.031 3.01,-4.392 4.767,-10.958 4.75,-17.719 -0.011,-4.21 -0.607,-6.78 -1.75,-9.438 C 73.588,39.313 69.829,34.351 64.954,29.217 62.354,26.478 59.822,23.802 59.329,23.28 55.865,19.609 51.046,14.631 50.153,11.368 49.978,10.731 45.43,9.7526 44.235,9.8735 Z"
             id="path1318" />
          <path
             inkscape:connector-curvature="0"
             style="fill:url(#linearGradient1417);stroke-width:1.67843556"
             d="m 52.288,16.185 c 0.954,9.296 6.505,15.648 8.791,17.126 0.671,0.428 1.496,0.989 1.875,1.219 7.794,4.725 12.062,11.011 12.438,18.5 0.259,5.159 -0.735,9.246 -3.563,15.344 -0.41,0.885 -0.551,1.302 -0.687,1.687 0.131,-0.163 0.127,-0.121 0.343,-0.437 2.888,-4.212 4.611,-10.655 4.594,-17.282 -0.01,-4.152 -0.454,-6.601 -1.656,-9.094 -0.136,-0.282 -0.818,-1.564 -1.469,-2.781 -0.65,-1.216 -1.3,-2.4 -1.437,-2.656 -0.422,-0.788 -2.319,-3.028 -7.188,-8.156 -2.601,-2.74 -5.13,-5.413 -5.625,-5.938 -2.19,-2.32 -5.04,-5.054 -6.416,-7.532 z"
             id="path3014" />
          <g
             style="stroke-width:1.67843556"
             id="g1404">
            <path
               style="stroke-width:1.67843556"
               inkscape:connector-curvature="0"
               d="m 49.754,43.269 c 0.056,-0.8 0.27,-0.808 0.39,-0.824 0.705,-0.089 2.246,1.2 4.472,2.85 2.227,1.649 5.298,3.859 6.799,4.889 7.372,5.057 11.084,11.291 11.04,18.524 -0.03,5.052 -1.168,8.907 -4.305,14.782 -1.184,2.217 -1.337,2.726 -0.981,2.98 0.678,0.484 0.795,0.421 1.836,-0.929 3.252,-4.216 5.375,-10.673 5.737,-17.425 0.226,-4.203 -0.226,-6.803 -1.217,-9.52 -1.376,-3.769 -4.851,-8.934 -9.43,-14.333 -2.442,-2.881 -4.82,-5.695 -5.282,-6.244 C 55.56,34.16 51.028,28.918 50.319,25.611 50.18,24.965 49.245,50.538 49.754,43.269 Z"
               id="path1357" />
            <path
               inkscape:connector-curvature="0"
               style="fill:url(#linearGradient1419);stroke-width:1.67843556"
               d="m 52.18,30.54 c 0.431,9.335 5.617,15.989 7.817,17.592 0.645,0.465 1.438,1.072 1.803,1.322 7.517,5.156 11.425,11.671 11.38,19.169 -0.031,5.166 -1.252,9.191 -4.418,15.12 -0.46,0.861 -0.623,1.27 -0.781,1.646 0.141,-0.155 0.133,-0.114 0.368,-0.417 3.119,-4.043 5.201,-10.379 5.556,-16.996 0.223,-4.146 -0.083,-6.617 -1.143,-9.173 -0.12,-0.289 -0.729,-1.608 -1.311,-2.859 -0.581,-1.251 -1.163,-2.47 -1.286,-2.733 -0.376,-0.81 -2.145,-3.153 -6.718,-8.547 -2.443,-2.881 -4.818,-5.692 -5.283,-6.244 -2.057,-2.439 -4.749,-5.329 -5.984,-7.88 z"
               id="path1363" />
          </g>
          <path
             inkscape:connector-curvature="0"
             style="fill:url(#radialGradient1421);stroke-width:1.67843556"
             d="m 25.388,92.791 c -4.175,3.76 -9.836,4.212 -12.638,1.01 -2.8016,-3.202 -1.688,-8.852 2.487,-12.612 4.174,-3.759 9.835,-4.212 12.637,-1.009 2.792,3.191 1.699,8.811 -2.446,12.575"
             id="path2279-0" />
          <path
             inkscape:connector-curvature="0"
             style="fill:url(#linearGradient1423);stroke-width:1.67843556"
             d="m 45.143,10.307 c -0.295,-0.021 -0.566,-0.007 -0.937,0.031 -0.249,0.025 -0.379,0.117 -0.531,0.219 2.872,6.825 3.965,16.048 3.812,21.281 -0.288,9.757 -1.281,16.888 -2.719,25.125 -1.408,8.066 -4.102,15.219 -6.656,22.719 0.366,-0.351 1.319,-2.048 1.81,-3.557 2.542,-7.813 4.33,-11.074 6.721,-26.037 v -0.031 l 0.063,-0.25 c 10e-4,-0.011 -0.002,-0.021 0,-0.032 2.304,-14.636 2.335,-27.424 -0.719,-39.281 -0.319,-0.082 -0.609,-0.171 -0.844,-0.187 z"
             id="path7829-3" />
        </g>
      </g>
    </g>
  </g>
</svg>
